Coordinates
version=1
nRows=10
nColumns=63
inDegrees=yes

Units are S.I. units (second, meters, Newtons, ...)
If the header above contains a line with 'inDegrees', this indicates whether rotational values are in degrees (yes) or radians (no).

endheader
time	pelvis_tilt	pelvis_list	pelvis_rotation	pelvis_tx	pelvis_ty	pelvis_tz	hip_flexion_r	hip_adduction_r	hip_rotation_r	knee_angle_r	knee_angle_r_beta	ankle_angle_r	subtalar_angle_r	mtp_angle_r	hip_flexion_l	hip_adduction_l	hip_rotation_l	knee_angle_l	knee_angle_l_beta	ankle_angle_l	subtalar_angle_l	mtp_angle_l	L5_S1_Flex_Ext	L5_S1_Lat_Bending	L5_S1_axial_rotation	L4_L5_Flex_Ext	L4_L5_Lat_Bending	L4_L5_axial_rotation	L3_L4_Flex_Ext	L3_L4_Lat_Bending	L3_L4_axial_rotation	L2_L3_Flex_Ext	L2_L3_Lat_Bending	L2_L3_axial_rotation	L1_L2_Flex_Ext	L1_L2_Lat_Bending	L1_L2_axial_rotation	L1_T12_Flex_Ext	L1_T12_Lat_Bending	L1_T12_axial_rotation	Abs_r3	Abs_r2	Abs_r1	Abs_t1	Abs_t2	neck_flexion	neck_bending	neck_rotation	arm_flex_r	arm_add_r	arm_rot_r	elbow_flex_r	pro_sup_r	wrist_flex_r	wrist_dev_r	arm_flex_l	arm_add_l	arm_rot_l	elbow_flex_l	pro_sup_l	wrist_flex_l	wrist_dev_l
      1.94736842	      1.61907804	     -5.90979736	     99.57715331	      0.19330392	      0.98401575	      0.12832361	      5.20871449	      0.40318327	    -26.26235945	     15.56560103	      0.27167099	     31.10284240	     17.18827630	      0.00000000	      5.01664299	     -0.46150015	     -1.18711936	     10.23492138	      0.17863308	     28.14740688	      7.55436168	      0.00000000	      0.37970902	      0.39290232	      0.19100012	      0.70515762	      0.52256009	      0.20293762	      0.62382395	      0.95530270	      0.20293762	      0.43396944	      0.95530270	      0.16712510	      0.35259780	      0.80120641	      0.15518759	      0.21696573	      0.60860570	      0.14325009	      2.71222357	      4.44458964	      1.06228534	      0.00000000	      0.00000000	     27.93854152	     -1.04914691	     -3.69388702	    -13.51240381	    -27.18028468	     17.61783417	     65.60146643	     80.91723410	      6.73943623	    -18.58358769	      6.03215577	    -20.43075506	     53.62992946	     33.31872108	     74.68276126	     -9.16081703	    -10.76252130
      1.96491228	      1.50384818	     -5.93322667	     99.72488667	      0.19327203	      0.98383540	      0.12875538	      5.24182931	      0.30245296	    -26.21462773	     15.44647715	      0.26959188	     31.41220405	     17.11519740	      0.00000000	      5.21277861	     -0.40251042	     -1.81821630	     10.39824649	      0.18148364	     28.44821184	      8.60581716	      0.00000000	      0.37689224	      0.38105723	      0.16100829	      0.69992657	      0.50680611	      0.17107131	      0.61919625	      0.92650255	      0.17107131	      0.43075014	      0.92650255	      0.14088226	      0.34998213	      0.77705190	      0.13081924	      0.21535622	      0.59025765	      0.12075622	      2.69210355	      4.31059558	      0.89547983	      0.00000000	      0.00000000	     27.92491450	     -0.75121377	     -3.21346312	    -13.27270938	    -27.23047766	     18.46502005	     65.58430689	     82.15973159	      3.68541187	    -19.31102647	      6.16107227	    -20.56200483	     53.91819226	     33.43181373	     74.94423495	     -9.33451022	    -11.15142396
      1.98245614	      1.38951246	     -5.94948312	     99.76071899	      0.19345520	      0.98361683	      0.12913536	      5.28342935	      0.24214029	    -25.92842727	     15.32328020	      0.26744169	     31.71611873	     16.96107759	      0.00000000	      5.46854132	     -0.44536041	     -3.30529847	     10.72044141	      0.18710700	     28.84953283	     10.50883175	      0.00000000	      0.36949148	      0.36768956	      0.15343903	      0.68618264	      0.48902712	      0.16302897	      0.60703756	      0.89400040	      0.16302897	      0.42229182	      0.89400040	      0.13425915	      0.34310979	      0.74979256	      0.12466922	      0.21112743	      0.56955113	      0.11507928	      2.63924073	      4.15937787	      0.85338188	      0.00000000	      0.00000000	     27.88401041	     -0.45753597	     -3.14489022	    -13.04414159	    -27.20693122	     19.12168098	     65.43092830	     82.54058769	      1.52167722	    -19.82301304	      6.32712325	    -20.63933948	     54.24449757	     33.38732169	     76.01997144	     -9.68869560	    -11.50064160
      2.00000000	      1.25030316	     -5.94921248	     99.86455283	      0.19342845	      0.98332520	      0.12939633	      5.27934526	      0.14185491	    -25.78336881	     15.19433892	      0.26519124	     32.07074564	     16.97168903	      0.00000000	      5.64815635	     -0.32774864	     -3.44212825	     10.96898490	      0.19144490	     28.97816169	     10.58716415	      0.00000000	      0.35690851	      0.35187005	      0.13129589	      0.66281480	      0.46798717	      0.13950188	      0.58636500	      0.85553685	      0.13950188	      0.40791074	      0.85553685	      0.11488390	      0.33142525	      0.71753341	      0.10667791	      0.20393753	      0.54504671	      0.09847192	      2.54936183	      3.98042441	      0.73022835	      0.00000000	      0.00000000	     27.82984666	     -0.09508509	     -3.21774883	    -12.72378518	    -27.10371641	     19.57571213	     64.98196263	     82.40147273	      0.89662350	    -20.36551903	      6.53713175	    -20.79968947	     54.98658935	     33.50903337	     77.29416476	    -10.88107908	    -11.65331878
      2.01754386	      1.15793354	     -5.98021717	     99.90944244	      0.19337683	      0.98300504	      0.12945250	      5.27342597	      0.10624974	    -25.51480221	     15.00082221	      0.26181374	     32.51059454	     17.14603719	      0.00000000	      5.82562589	     -0.23913049	     -3.49469939	     11.19063714	      0.19531346	     29.08791669	     10.42095723	      0.00000000	      0.35189538	      0.34478733	      0.12236380	      0.65350491	      0.45856715	      0.13001153	      0.57812892	      0.83831592	      0.13001153	      0.40218123	      0.83831592	      0.10706832	      0.32677005	      0.70309033	      0.09942059	      0.20107302	      0.53407558	      0.09177285	      2.51355349	      3.90030328	      0.68055073	      0.00000000	      0.00000000	     27.75774069	      0.07019054	     -3.14900727	    -12.44062388	    -26.77671474	     19.57119985	     64.40031713	     82.29215054	      0.81072832	    -20.22627675	      6.66215107	    -20.75052419	     55.31980663	     33.37246880	     77.74728988	    -11.05317006	    -11.60732188
      2.03508772	      0.96667200	     -5.99874517	     99.88977736	      0.19341996	      0.98268139	      0.12962556	      5.27390001	     -0.00935913	    -25.09600944	     14.80924529	      0.25847009	     32.95183000	     17.22123948	      0.00000000	      6.09323486	     -0.04914065	     -3.37932922	     11.64103576	      0.20317440	     29.22763272	      9.99018499	      0.00000000	      0.33769226	      0.32203997	      0.16788681	      0.62712830	      0.42831316	      0.17837973	      0.55479462	      0.78300798	      0.17837973	      0.38594849	      0.78300798	      0.14690096	      0.31358103	      0.65670390	      0.13640803	      0.19295736	      0.49883991	      0.12591511	      2.41210206	      3.64298054	      0.93373607	      0.00000000	      0.00000000	     27.70108744	      0.66924431	     -3.18392771	    -12.09120372	    -26.41594175	     19.80551670	     63.55530336	     81.56071973	      0.88284069	    -20.09860736	      7.19944325	    -20.87218859	     56.77304807	     33.38166634	     79.99360937	    -12.51775643	    -11.38547741
      2.05263158	      0.91819188	     -6.06197979	     99.93921513	      0.19307629	      0.98221369	      0.12933576	      5.29581187	     -0.00071517	    -24.73393258	     14.59974630	      0.25481364	     33.53008513	     17.47825397	      0.00000000	      6.25889051	      0.03345259	     -3.28397137	     11.76820428	      0.20539391	     29.49200610	      9.95922763	      0.00000000	      0.34179343	      0.32155181	      0.19963495	      0.63474458	      0.42766391	      0.21211214	      0.56153243	      0.78182108	      0.21211214	      0.39063571	      0.78182108	      0.17468058	      0.31738938	      0.65570846	      0.16220340	      0.19530077	      0.49808376	      0.14972621	      2.44139629	      3.63745844	      1.11030971	      0.00000000	      0.00000000	     27.68457948	      0.59786670	     -3.17829937	    -11.85272954	    -25.96964948	     19.80374804	     62.59110286	     81.36030892	      0.76119027	    -19.68382069	      7.21953401	    -20.60356764	     56.86735998	     33.16423445	     80.11893607	    -12.64179994	    -11.17026310
      2.07017544	      0.66809991	     -6.13914460	     99.64632111	      0.19329494	      0.98181834	      0.12909122	      5.34022120	     -0.15015668	    -23.94229116	     14.35178756	      0.25048595	     34.00662663	     17.58351991	      0.00000000	      6.49362951	      0.30405291	     -3.41865220	     12.08159107	      0.21086354	     29.74495979	      9.80396481	      0.00000000	      0.33995442	      0.28889830	      0.32191448	      0.63132935	      0.38423474	      0.34203413	      0.55851112	      0.70242732	      0.34203413	      0.38853391	      0.70242732	      0.28167517	      0.31568167	      0.58912141	      0.26155551	      0.19424996	      0.44750346	      0.24143586	      2.42826043	      3.26807533	      1.79039174	      0.00000000	      0.00000000	     27.67057315	      0.64353882	     -3.80859344	    -11.58550342	    -25.38249879	     20.02060187	     61.39456203	     79.31266711	      1.37251914	    -18.51961847	      7.40068174	    -20.50972262	     57.17723448	     33.25911006	     80.91870660	    -12.92180538	    -10.17194966
      2.08771930	      0.58676365	     -6.18984406	     99.64632255	      0.19291314	      0.98127352	      0.12862772	      5.33745532	     -0.18023629	    -23.58492817	     14.12457447	      0.24652033	     34.55295776	     17.82865143	      0.00000000	      6.66513411	      0.43499235	     -3.24792382	     12.22499655	      0.21336644	     30.16012754	      9.93780521	      0.00000000	      0.34584845	      0.28307198	      0.37852197	      0.64227515	      0.37648573	      0.40217960	      0.56819442	      0.68826121	      0.40217960	      0.39527019	      0.68826121	      0.33120673	      0.32115487	      0.57724038	      0.30754910	      0.19761780	      0.43847850	      0.28389148	      2.47036088	      3.20216684	      2.10522566	      0.00000000	      0.00000000	     27.68497616	      0.45710517	     -3.83483399	    -11.38625160	    -24.82025254	     20.10136152	     60.10525756	     79.00173509	      1.24778196	    -17.94805349	      7.37562506	    -20.17873595	     57.09002993	     33.04355147	     80.86216105	    -12.82190945	    -10.04261113
      2.10526316	      0.35994405	     -6.21724797	     99.24991375	      0.19326796	      0.98066741	      0.12806042	      5.35043129	     -0.30097188	    -22.73383367	     13.92311760	      0.24300424	     35.11510205	     17.82101473	      0.00000000	      6.76891478	      0.58340770	     -4.12646977	     12.41938328	      0.21675913	     30.64365546	     10.91861075	      0.00000000	      0.34278320	      0.25297265	      0.51268183	      0.63658268	      0.33645362	      0.54472444	      0.56315852	      0.61507769	      0.54472444	      0.39176692	      0.61507769	      0.44859660	      0.31830848	      0.51586182	      0.41655398	      0.19586632	      0.39185463	      0.38451137	      2.44846612	      2.86167718	      2.85138252	      0.00000000	      0.00000000	     27.66856024	      0.25478625	     -4.67290751	    -11.02519637	    -24.37693896	     20.89959283	     58.74433260	     76.53277055	      1.72695888	    -16.90502664	      7.21674116	    -19.99643326	     56.07687949	     32.97847986	     80.59235765	    -11.05671553	    -10.09606685
